<svg width="24" height="24" viewBox="0 0 24 24" fill="none" xmlns="http://www.w3.org/2000/svg">
<path d="M0 6C0 2.68629 2.68629 0 6 0H18C21.3137 0 24 2.68629 24 6V18C24 21.3137 21.3137 24 18 24H6C2.68629 24 0 21.3137 0 18V6Z" fill="#1717CC"/>
<path d="M18 22.8V24H6V22.8H18ZM22.8 18V6C22.8 3.34903 20.651 1.2 18 1.2H6C3.34903 1.2 1.2 3.34903 1.2 6V18C1.2 20.651 3.34903 22.8 6 22.8V24C2.68629 24 0 21.3137 0 18V6C0 2.78966 2.52133 0.168634 5.6918 0.00820313L6 0H18L18.3082 0.00820313C21.4787 0.168634 24 2.78966 24 6V18L23.9918 18.3082C23.8314 21.4787 21.2103 24 18 24V22.8C20.651 22.8 22.8 20.651 22.8 18Z" fill="white" fill-opacity="0.4"/>
<path d="M13.0143 16.4955L13.0073 18.0894H10.8V15.875H12.3967C12.4106 15.875 12.421 15.8807 12.433 15.8822C12.5013 15.89 12.5683 15.9074 12.6321 15.9338C12.653 15.941 12.6734 15.9503 12.6928 15.9591C12.6978 15.9627 12.7032 15.9647 12.7082 15.9683C12.8126 16.0164 12.8978 16.1002 12.9496 16.2056C12.9531 16.2113 12.9546 16.2144 12.9566 16.218C12.9665 16.2394 12.9746 16.2617 12.981 16.2845C12.9863 16.2998 12.9903 16.3155 12.9929 16.3315C13.0065 16.385 13.0136 16.4401 13.0143 16.4955Z" fill="white"/>
<path d="M13.0143 6.17328V14.2975C13.0143 14.4243 12.9499 14.534 12.8176 14.6284C12.6809 14.7237 12.5115 14.773 12.3388 14.7678H10.8V5.91072H12.6473C12.7401 5.90909 12.8308 5.93553 12.905 5.9858C12.9389 6.00655 12.9666 6.03452 12.9857 6.06722C13.0048 6.09992 13.0146 6.13635 13.0143 6.17328Z" fill="white"/>
</svg>
